<svg width="76" height="66" viewBox="0 0 76 66" fill="none" xmlns="http://www.w3.org/2000/svg">
<path d="M91.0352 1.34813L53.3163 1.30905V5.21667C53.311 7.08109 51.8123 8.59139 49.9622 8.59676H45.0475C43.21 8.60238 41.7103 7.11699 41.6837 5.26552V1.3579H4.00357C2.5587 1.35228 1.1543 0.876039 0 3.57753e-07V22.4688C0.0106633 24.9731 2.02263 27.0007 4.50765 27.0114H90.4148C92.9148 27.0439 94.9678 25.028 95 22.5086C95 22.5084 95 22.5081 95 22.5079V0.0390774C93.8503 0.889717 92.4614 1.34837 91.0352 1.34813Z" transform="translate(0 49.9883)" fill="white" fill-opacity="0.5"/>
<path d="M90.4536 12.7193H65.9184V5.81258C65.9157 4.27225 65.3055 2.79614 64.2219 1.70958C63.1437 0.617648 61.679 0.00268677 60.1505 2.83221e-07H34.8107C31.5984 2.83221e-07 28.9944 2.62421 28.9944 5.86143V12.7681H4.54643C2.06504 12.7572 0.0370791 14.7615 0 17.2619V44.5078C0.00533163 46.7122 1.77737 48.4979 3.9648 48.5033H41.6837V44.5957C41.689 42.731 43.1877 41.221 45.0378 41.2156H49.9429C51.784 41.2046 53.2897 42.6915 53.3163 44.5468V48.4545H91.0061C93.1863 48.4655 94.968 46.7046 95 44.5078V17.2619C94.9893 14.7425 92.9539 12.7086 90.4536 12.7193ZM60.0245 12.7193H34.9755V5.97866H60.0245V12.7193Z" fill="white" fill-opacity="0.5"/>
</svg>
