<svg width="68" height="67" viewBox="0 0 68 67" fill="none" xmlns="http://www.w3.org/2000/svg">
<path d="M41.4993 0C18.5801 0 0 18.5807 0 41.4993C0 64.4179 18.5801 83 41.4993 83C64.4185 83 83 64.4179 83 41.4993C83 18.5807 64.4185 0 41.4993 0ZM59.4406 49.3925H41.8465C41.787 49.3925 41.7317 49.3781 41.6728 49.3759C41.6138 49.3786 41.5588 49.3925 41.499 49.3925C39.914 49.3925 38.6288 48.1073 38.6288 46.5223V17.2225C38.6288 15.6375 39.914 14.3523 41.499 14.3523C43.0841 14.3523 44.3692 15.6375 44.3692 17.2225V43.6521H59.4395C61.0246 43.6521 62.3097 44.9372 62.3097 46.5223C62.3097 48.1073 61.0257 49.3925 59.4406 49.3925Z" fill="white" fill-opacity="0.5"/>
</svg>
