<svg width="77" height="66" viewBox="0 0 77 66" fill="none" xmlns="http://www.w3.org/2000/svg">
<path d="M16.9276 0H2.37305C1.06139 0 0 1.06139 0 2.37306V18.9843H19.3006V2.37306C19.3006 1.06139 18.2392 0 16.9276 0Z" transform="translate(0.746094 52.5234)" fill="white" fill-opacity="0.5"/>
<path d="M16.6113 0H2.37305C1.06139 0 1.73807e-07 1.06139 1.73807e-07 2.37306V33.2227H18.9842V2.37306C18.9844 1.06139 17.923 0 16.6113 0Z" transform="translate(28.7925 38.2852)" fill="white" fill-opacity="0.5"/>
<path d="M37.2739 19.6795L20.6627 0.695188C19.7358 -0.231729 18.234 -0.231729 17.3071 0.695188L0.69575 19.6795C0.0167416 20.3585 -0.18718 21.3781 0.181275 22.2658C0.547358 23.1533 1.41415 23.7305 2.3735 23.7305H9.49264V71.5078H28.477V23.7305H35.5962C36.5555 23.7305 37.4223 23.1535 37.7884 22.2658C38.1568 21.3783 37.9529 20.3585 37.2739 19.6795Z" transform="translate(48.0303)" fill="white" fill-opacity="0.5"/>
</svg>
