<svg width="72" height="66" viewBox="0 0 72 66" fill="none" xmlns="http://www.w3.org/2000/svg">
<path d="M71.5 27.9167H82.5V13.9583C82.5 12.4173 81.268 11.1667 79.75 11.1667H71.5V2.79167C71.5 1.25067 70.268 0 68.75 0H8.25C3.7015 0 0 3.75758 0 8.375V58.625C0 63.2424 3.7015 67 8.25 67H79.75C81.268 67 82.5 65.7493 82.5 64.2083V50.25H71.5C65.4335 50.25 60.5 45.2417 60.5 39.0833C60.5 32.9249 65.4335 27.9167 71.5 27.9167ZM8.25 11.1667C6.732 11.1667 5.5 9.916 5.5 8.375C5.5 6.834 6.732 5.58333 8.25 5.58333H66V11.1667H8.25Z" transform="translate(83) scale(-1 1)" fill="white" fill-opacity="0.5"/>
</svg>
